<svg class="logo" viewBox="0 0 221 30" xmlns="http://www.w3.org/2000/svg" xmlns:xlink="http://www.w3.org/1999/xlink"><defs><path id="a" d="M.87 0h26.805v30H.87z"/></defs><g fill="none" fill-rule="evenodd"><path fill="#000" d="M155.883 7.99l-1.358 3.995h4.113l-.151.57h-4.114l-4.302 12.962c-.127.408-.252.83-.378 1.264a4.67 4.67 0 0 0-.19 1.304c0 .408.095.734.284.98.189.243.497.365.925.365.453 0 .88-.149 1.283-.448a6.323 6.323 0 0 0 1.095-1.039 7.83 7.83 0 0 0 .83-1.203c.227-.408.68-.224.453.224a6.982 6.982 0 0 1-.906 1.345 5.234 5.234 0 0 1-1.415 1.162c-.566.326-1.24.49-2.02.49-.956 0-1.673-.252-2.151-.755a2.538 2.538 0 0 1-.717-1.814c0-.543.094-1.16.283-1.854.188-.693.383-1.325.585-1.896l3.699-11.087h-3.397l.15-.57h3.398l1.359-3.995h2.642z"/><path fill="#000" d="M159.194 28.471c.617.649 1.403.973 2.36.973.78 0 1.51-.238 2.188-.715.68-.477 1.296-1.106 1.85-1.887a15.425 15.425 0 0 0 1.472-2.602 24.294 24.294 0 0 0 1.736-5.561c.151-.848.227-1.536.227-2.066 0-1.271-.258-2.278-.774-3.019-.516-.742-1.415-1.113-2.699-1.113-.73 0-1.422.226-2.076.676-.655.45-1.252 1.04-1.793 1.768a13.946 13.946 0 0 0-1.453 2.482 21.46 21.46 0 0 0-1.076 2.84 22.932 22.932 0 0 0-.66 2.821c-.15.914-.227 1.715-.227 2.403 0 1.351.308 2.351.925 3m-2.472-9.693c.63-1.39 1.428-2.589 2.396-3.595a11.57 11.57 0 0 1 3.228-2.384c1.182-.582 2.315-.874 3.397-.874.982 0 1.837.213 2.567.636a5.815 5.815 0 0 1 1.812 1.629c.478.662.83 1.39 1.056 2.184.227.795.341 1.563.341 2.305 0 1.536-.316 2.986-.945 4.349a13.666 13.666 0 0 1-2.378 3.595c-.956 1.034-2.019 1.848-3.189 2.444-1.17.595-2.284.893-3.34.893-.907 0-1.718-.186-2.435-.556a6.006 6.006 0 0 1-1.85-1.47 6.52 6.52 0 0 1-1.189-2.125 7.84 7.84 0 0 1-.415-2.562c0-1.589.314-3.079.944-4.469m19.948-3.971l.603-2.263h-3.284l.151-.585h5.813a48.81 48.81 0 0 1-.547 2.22c-.239.894-.498 1.76-.774 2.597l.076.084c.251-.418.565-.921.943-1.508.377-.587.805-1.152 1.283-1.697a7.657 7.657 0 0 1 1.586-1.382 3.328 3.328 0 0 1 1.85-.566c.93 0 1.641.292 2.132.88.49.587.723 1.215.698 1.886 0 .446-.07.816-.208 1.11a1.68 1.68 0 0 1-.528.67 1.899 1.899 0 0 1-.66.314 2.636 2.636 0 0 1-.642.084c-.352 0-.64-.098-.868-.293-.227-.195-.34-.489-.34-.88 0-.307.057-.538.17-.691.113-.155.232-.3.358-.44.126-.14.246-.293.36-.461.113-.168.17-.39.17-.67a.833.833 0 0 0-.302-.671 1.149 1.149 0 0 0-.756-.252c-.478 0-1.032.273-1.66.818-.63.544-1.253 1.242-1.869 2.093a21.925 21.925 0 0 0-1.756 2.912 22.52 22.52 0 0 0-1.358 3.268l-2.718 8.547h-2.642l4.076-12.904c.227-.725.44-1.466.642-2.22m29.399-1.668c-.302-.368-.807-.553-1.51-.553-.78 0-1.53.238-2.246.711a8.919 8.919 0 0 0-1.944 1.757 13.352 13.352 0 0 0-1.51 2.251 14.481 14.481 0 0 0-.981 2.231c.578.106 1.22.158 1.925.158.906 0 1.76-.144 2.567-.434a7.808 7.808 0 0 0 2.132-1.146 5.625 5.625 0 0 0 1.472-1.658c.365-.632.547-1.29.547-1.974 0-.527-.15-.974-.452-1.343m-.151 13.485c-.302.487-.717.974-1.246 1.46-.53.489-1.176.923-1.944 1.304-.767.381-1.692.572-2.774.572-1.083 0-1.994-.184-2.737-.552-.742-.369-1.347-.842-1.812-1.422a5.705 5.705 0 0 1-1.02-1.915 6.911 6.911 0 0 1-.32-2.034c0-1.315.309-2.678.925-4.086a15.664 15.664 0 0 1 2.416-3.87 13.804 13.804 0 0 1 3.379-2.902c1.258-.764 2.54-1.145 3.849-1.145.503 0 1.006.059 1.51.177.503.119.956.296 1.36.533.4.237.729.54.98.909.252.368.378.816.378 1.342 0 .71-.183 1.336-.547 1.875a5.022 5.022 0 0 1-1.416 1.383 9.71 9.71 0 0 1-1.906.967c-.693.263-1.365.467-2.02.612-.654.145-1.252.251-1.793.316-.541.066-.937.099-1.188.099-.43 0-.844-.014-1.246-.04a9.873 9.873 0 0 1-1.057-.118 28.126 28.126 0 0 0-.7 2.507c-.187.83-.281 1.705-.281 2.626 0 1.421.352 2.482 1.056 3.179.705.697 1.598 1.046 2.68 1.046.806 0 1.517-.164 2.133-.494a7.283 7.283 0 0 0 1.624-1.164 8.862 8.862 0 0 0 1.17-1.363c.314-.46.849-.289.547.198m5.577-7.561c-.314-.518-.472-1.136-.472-1.853 0-.61.151-1.234.453-1.872a6.017 6.017 0 0 1 1.246-1.733 6.13 6.13 0 0 1 1.906-1.255 6.003 6.003 0 0 1 2.396-.48c1.058 0 1.907.247 2.548.739.643.49.963 1.122.963 1.892 0 1.116-.516 1.673-1.548 1.673-.352 0-.66-.105-.924-.32-.264-.21-.397-.516-.397-.915 0-.371.081-.644.246-.816a.921.921 0 0 0 .245-.658c0-.691-.429-1.036-1.283-1.036-.605 0-1.127.093-1.566.279a3.05 3.05 0 0 0-1.737 1.833 3.606 3.606 0 0 0-.208 1.195c0 .532.126 1.03.378 1.494.251.466.604 1.016 1.057 1.654l2.226 3.068c.303.398.511.817.623 1.255.114.439.17.883.17 1.335 0 .903-.214 1.693-.64 2.37a5.882 5.882 0 0 1-1.606 1.693 7.228 7.228 0 0 1-2.075 1.017c-.743.226-1.44.338-2.095.338a6.71 6.71 0 0 1-1.66-.2 5.08 5.08 0 0 1-1.417-.576 3.097 3.097 0 0 1-1-.957 2.389 2.389 0 0 1-.377-1.334c0-.611.183-1.07.547-1.375.365-.305.824-.458 1.378-.458.226 0 .434.086.623.259a.81.81 0 0 1 .282.617c0 .319-.062.617-.188.896-.126.28-.189.579-.189.898 0 .637.195 1.082.585 1.334.39.253.9.378 1.53.378.627 0 1.188-.106 1.678-.318a4.279 4.279 0 0 0 1.246-.797c.34-.32.598-.678.774-1.076.176-.398.264-.77.264-1.115 0-.531-.082-1.01-.245-1.435-.165-.425-.434-.903-.81-1.434l-1.889-2.63a25.61 25.61 0 0 1-1.038-1.574m-15.71-12.749a1.67 1.67 0 1 1-3.34-.001 1.67 1.67 0 0 1 3.34 0m-6.401 19.497l4.454-13.792h-6.002l-.151.569h3.36l-3.888 11.92c-.151.463-.302.97-.453 1.527a5.867 5.867 0 0 0-.227 1.526c0 .869.245 1.485.737 1.852.49.365 1.15.548 1.98.548.756 0 1.41-.162 1.964-.488a5.339 5.339 0 0 0 1.396-1.16c.378-.447.673-.895.888-1.342.213-.448-.246-.631-.473-.224a7.816 7.816 0 0 1-.83 1.2 6.695 6.695 0 0 1-1.075 1.038c-.391.299-.787.448-1.19.448-.352 0-.616-.116-.792-.346a1.328 1.328 0 0 1-.264-.834c0-.38.062-.78.188-1.201.126-.42.252-.834.378-1.241M127.139 21.44c-.135.405-.256.79-.364 1.153a4.347 4.347 0 0 0-.162 1.235c0 .917.215 1.726.648 2.427a5.482 5.482 0 0 0 1.699 1.741 8.42 8.42 0 0 0 2.347 1.052 9.66 9.66 0 0 0 2.63.364c1.188 0 2.253-.168 3.198-.506.944-.337 1.74-.809 2.387-1.416a6.033 6.033 0 0 0 1.477-2.145c.337-.822.506-1.719.506-2.69 0-.999-.222-1.882-.667-2.652-.446-.769-1.06-1.517-1.842-2.246l-2.873-2.63c-1.295-1.16-2.314-2.313-3.055-3.46-.742-1.146-1.113-2.448-1.113-3.905 0-1.133.256-2.172.768-3.116a7.75 7.75 0 0 1 2.064-2.428A9.978 9.978 0 0 1 137.762.64a10.742 10.742 0 0 1 3.46-.567c.836 0 1.57.075 2.206.222.633.15 1.213.318 1.739.506a68.81 68.81 0 0 0 1.457.506c.446.15.897.223 1.356.223.405 0 .715-.094.93-.283.216-.189.392-.446.527-.769l.607.121-2.792 7.73h-.486c.054-.216.128-.52.223-.91.094-.392.14-.884.14-1.478 0-.972-.16-1.794-.484-2.469-.324-.674-.756-1.22-1.296-1.638a5.19 5.19 0 0 0-1.881-.91 8.755 8.755 0 0 0-2.246-.284c-.971 0-1.861.135-2.671.404-.81.27-1.504.634-2.084 1.093a4.875 4.875 0 0 0-1.356 1.66 4.725 4.725 0 0 0-.485 2.144c0 1.16.324 2.165.97 3.015a17.237 17.237 0 0 0 2.186 2.367l3.602 3.238c.97.863 1.8 1.835 2.488 2.913.689 1.08 1.033 2.28 1.033 3.602 0 1.026-.237 2.064-.71 3.116-.471 1.052-1.172 2.003-2.103 2.852-.931.851-2.098 1.545-3.5 2.085-1.403.54-3.036.81-4.897.81-.972 0-1.828-.082-2.57-.244a16.633 16.633 0 0 1-2.023-.566 39.708 39.708 0 0 0-1.7-.566 5.246 5.246 0 0 0-1.558-.244c-.35 0-.674.13-.971.385-.297.257-.472.547-.526.87l-.567-.12 2.833-8.014h.526zM12.168.188v.585H8.765v28.579h6.103c.813 0 1.633-.153 2.459-.46.826-.306 1.602-.815 2.33-1.525.727-.71 1.38-1.63 1.96-2.758.579-1.128 1.03-2.5 1.35-4.115h.48v9.443H.002v-.585h3.402V.772H0V.189h12.167z"/><g transform="translate(29)"><mask id="b" fill="#fff"><use xlink:href="#a"/></mask><path fill="#000" d="M7.133 22.096c.286 1.847.733 3.315 1.342 4.407.608 1.092 1.396 1.854 2.362 2.284.966.432 2.117.647 3.453.647 1.766 0 3.15-.37 4.152-1.112 1.002-.741 1.754-1.765 2.255-3.072.5-1.307.817-2.857.948-4.65.131-1.792.197-3.74.197-5.842 0-1.887-.054-3.685-.161-5.398-.108-1.711-.412-3.221-.913-4.528-.501-1.307-1.259-2.345-2.272-3.113C17.481.949 16.08.566 14.29.566c-1.67 0-3.006.358-4.008 1.072-1.002.714-1.766 1.718-2.29 3.012-.526 1.294-.872 2.83-1.038 4.609a63.034 63.034 0 0 0-.251 5.863c0 2.803.143 5.128.43 6.974M2.105 8.895c.823-1.86 1.879-3.45 3.167-4.771 1.288-1.32 2.732-2.338 4.33-3.052C11.2.358 12.763 0 14.29 0c1.647 0 3.275.35 4.885 1.052a13.331 13.331 0 0 1 4.295 2.992c1.253 1.293 2.267 2.864 3.042 4.71.775 1.846 1.163 3.928 1.163 6.246 0 2.022-.364 3.942-1.091 5.762-.728 1.819-1.706 3.416-2.935 4.79a13.936 13.936 0 0 1-4.259 3.255A11.372 11.372 0 0 1 14.29 30c-1.765 0-3.459-.384-5.081-1.152a13.773 13.773 0 0 1-4.277-3.154c-1.229-1.334-2.214-2.904-2.953-4.71-.74-1.805-1.109-3.76-1.109-5.862 0-2.291.411-4.367 1.235-6.227" mask="url(#b)"/></g><path fill="#000" d="M114.402.188v7.145h-.48c-.124-.474-.333-1.08-.629-1.817a9.249 9.249 0 0 0-1.239-2.153c-.53-.695-1.215-1.301-2.053-1.817-.838-.515-1.862-.773-3.07-.773h-5.88v12.91h2.071c.912 0 1.683-.145 2.312-.438a4.197 4.197 0 0 0 1.572-1.254c.418-.543.764-1.197 1.035-1.963.271-.766.493-1.623.666-2.57h.481v12.994h-.48a27.107 27.107 0 0 0-.61-2.34 7.275 7.275 0 0 0-.945-1.984 4.49 4.49 0 0 0-1.46-1.358c-.58-.334-1.3-.501-2.164-.501h-2.478v15.083h6.065c1.134 0 2.158-.216 3.07-.648a7.635 7.635 0 0 0 2.423-1.818 10.419 10.419 0 0 0 1.756-2.736 16.222 16.222 0 0 0 1.073-3.363h.48v9.15H92.286v-.585h3.403V.772h-3.403V.189h22.116zm-33.163 0v.585h3.328l-7.803 22.645L69.107.773h3.55V.188H60.306v.585h3.107l9.826 29.158h1.843L85.123.773h3.18V.188z"/></g></svg>